<svg width="49" height="36" viewBox="0 0 49 36" fill="none" xmlns="http://www.w3.org/2000/svg">
<path d="M3.16 32H1V18.6H7.56C10.54 18.6 12.58 20.3 12.58 23.28C12.58 26.24 10.54 27.96 7.56 27.96H3.16V32ZM7.36 20.54H3.16V26.02H7.36C9.38 26.02 10.42 25.26 10.42 23.28C10.42 21.3 9.38 20.54 7.36 20.54ZM16.0311 32H13.8711V22.06H15.8511V24.74H15.9911C16.2911 23.14 17.3711 21.86 19.4111 21.86C21.6711 21.86 22.6511 23.48 22.6511 25.36V26.66H20.5111V25.78C20.5111 24.36 19.9111 23.7 18.4311 23.7C16.7311 23.7 16.0311 24.64 16.0311 26.42V32ZM29.0078 32.2C25.7478 32.2 23.6078 30.36 23.6078 27.04C23.6078 23.94 25.7278 21.86 28.9678 21.86C32.0478 21.86 34.1478 23.56 34.1478 26.58C34.1478 26.94 34.1278 27.22 34.0678 27.52H25.6278C25.7078 29.44 26.6478 30.46 28.9478 30.46C31.0278 30.46 31.8878 29.78 31.8878 28.6V28.44H34.0478V28.62C34.0478 30.74 31.9678 32.2 29.0078 32.2ZM28.9278 23.56C26.7278 23.56 25.7678 24.54 25.6478 26.32H32.1078V26.28C32.1078 24.44 31.0478 23.56 28.9278 23.56ZM37.9256 35.4H35.7656V22.06H37.7456V24.82H37.9256C38.3256 22.98 39.7256 21.86 42.0656 21.86C45.1456 21.86 46.8856 23.96 46.8856 27.04C46.8856 30.12 45.1856 32.2 42.0856 32.2C39.8456 32.2 38.4056 31.02 38.0056 29.2H37.9256V35.4ZM37.9256 27.2C37.9256 29.24 39.2256 30.24 41.3456 30.24C43.4856 30.24 44.7256 29.42 44.7256 27.04C44.7256 24.64 43.4656 23.84 41.3856 23.84C39.1656 23.84 37.9256 24.88 37.9256 27.02V27.2Z" fill="#020202"/>
<path d="M3.488 15H0.48V4.28H3.488V15ZM13.9688 15H4.44875V4.28H13.9688V6.984H7.45675V8.264H13.7288V10.952H7.45675V12.296H13.9688V15ZM24.0238 15H14.8238V4.28H17.8318V12.296H24.0238V15ZM31.3838 15H28.3758V6.984H24.5838V4.28H35.1598V6.984H31.3838V15ZM41.0863 15.16C37.8063 15.16 35.8063 13.992 35.8063 11.272V11.176H38.8143V11.512C38.8143 12.232 39.0703 12.424 41.0863 12.424C42.9103 12.424 43.1023 12.28 43.1023 11.8C43.1023 11.416 42.8943 11.256 42.0143 11.144L38.6543 10.696C36.6543 10.424 35.6463 9.352 35.6463 7.624C35.6463 5.912 36.9743 4.12 40.8463 4.12C44.2543 4.12 45.8863 5.608 45.8863 8.008V8.104H42.8783V7.864C42.8783 7.096 42.5423 6.84 40.5263 6.84C38.9903 6.84 38.6543 7.048 38.6543 7.512C38.6543 7.848 38.8463 8.008 39.4223 8.088L42.7823 8.584C45.4062 8.968 46.1103 10.312 46.1103 11.688C46.1103 13.528 44.7023 15.16 41.0863 15.16Z" fill="#FF0000"/>
</svg>
